<svg width="601" height="346" viewBox="0 0 601 346" fill="none" xmlns="http://www.w3.org/2000/svg">
<path d="M0.5 -2.30957V455.69" stroke="#F57F4B" stroke-miterlimit="10"/>
<path d="M240.5 231.69H600.5" stroke="#F57F4B" stroke-miterlimit="10"/>
<path d="M240.5 311.69H600.5" stroke="#F57F4B" stroke-miterlimit="10"/>
<path d="M240.5 271.69H600.5" stroke="#F57F4B" stroke-miterlimit="10"/>
<path d="M240.5 191.69H600.5" stroke="#F57F4B" stroke-miterlimit="10"/>
<path d="M240.5 191.75V397.69" stroke="#F57F4B" stroke-miterlimit="10"/>
<path d="M360.5 191.75V397.69" stroke="#F57F4B" stroke-miterlimit="10"/>
<path d="M480.5 191.75V397.69" stroke="#F57F4B" stroke-miterlimit="10"/>
<path d="M480.5 -2.30957V191.69" stroke="#F57F4B" stroke-miterlimit="10"/>
<path d="M245.5 243.19C245.5 186.581 199.385 140.69 142.5 140.69C85.615 140.69 39.5 186.581 39.5 243.19C39.5 299.799 85.615 345.69 142.5 345.69C199.385 345.69 245.5 299.799 245.5 243.19Z" fill="#F2672D" stroke="#F68C5D" stroke-width="0.8" stroke-miterlimit="10"/>
<path d="M307.5 323.606H154.5C141.245 323.606 130.5 334.352 130.5 347.606V387.606C130.5 400.861 141.245 411.606 154.5 411.606H307.5C320.755 411.606 331.5 400.861 331.5 387.606V347.606C331.5 334.352 320.755 323.606 307.5 323.606Z" fill="#F2672D" stroke="#F68C5D" stroke-width="0.8" stroke-miterlimit="10"/>
<path d="M226.475 28.8055L156.767 55.2378C150.252 57.7084 146.973 64.993 149.443 71.5084L175.875 141.216C178.346 147.732 185.631 151.011 192.146 148.54L261.854 122.108C268.369 119.637 271.648 112.353 269.177 105.837L242.745 36.1294C240.275 29.6139 232.99 26.3349 226.475 28.8055Z" fill="#F2672D" stroke="#F68C5D" stroke-width="0.8" stroke-miterlimit="10"/>
<path d="M567.323 50.0836C572.126 50.0836 576.02 46.19 576.02 41.387C576.02 36.584 572.126 32.6904 567.323 32.6904C562.52 32.6904 558.627 36.584 558.627 41.387C558.627 46.19 562.52 50.0836 567.323 50.0836Z" fill="#F2672D" stroke="#F68C5D" stroke-width="0.8" stroke-miterlimit="10"/>
<path d="M538.759 50.0836C543.562 50.0836 547.456 46.19 547.456 41.387C547.456 36.584 543.562 32.6904 538.759 32.6904C533.956 32.6904 530.062 36.584 530.062 41.387C530.062 46.19 533.956 50.0836 538.759 50.0836Z" fill="#F2672D" stroke="#F68C5D" stroke-width="0.8" stroke-miterlimit="10"/>
<path d="M510.197 50.0836C515 50.0836 518.893 46.19 518.893 41.387C518.893 36.584 515 32.6904 510.197 32.6904C505.394 32.6904 501.5 36.584 501.5 41.387C501.5 46.19 505.394 50.0836 510.197 50.0836Z" fill="#F2672D" stroke="#F68C5D" stroke-width="0.8" stroke-miterlimit="10"/>
<path d="M563.598 142.827L537.203 184.625C534.419 189.079 529.537 191.791 524.27 191.791H469.882C464.614 191.805 459.732 189.079 456.948 184.625L430.825 142.827C427.727 137.874 427.727 131.607 430.811 126.668L457.205 84.8708C460.003 80.4027 464.871 77.6904 470.124 77.6904H524.527C529.794 77.6904 534.676 80.4027 537.46 84.8422L563.583 126.668C566.681 131.607 566.681 137.888 563.598 142.827Z" fill="#F2672D" stroke="#F7A880" stroke-width="1.8" stroke-miterlimit="10"/>
<path d="M527.338 93.207C528.266 91.7367 529.808 91.5654 530.422 91.5654C531.05 91.5654 532.577 91.7224 533.505 93.207L535.261 96.0335V95.9764L556.017 129.194C558.13 132.577 558.13 136.946 556.017 140.314L546.267 155.831L533.234 176.473C532.306 177.944 530.879 178.115 530.308 178.101C529.722 178.101 528.281 177.944 527.353 176.459L504.841 140.414C502.728 137.045 502.714 132.692 504.784 129.294L527.338 93.207Z" fill="#F2672D" stroke="#F7A880" stroke-miterlimit="10"/>
<path d="M199.514 250.247C199.368 246.431 200.387 242.586 202.485 239.222L328.68 37.2527C332.291 31.4709 338.612 27.9756 345.428 27.9756H415.887C422.703 27.9756 429.038 31.4854 432.65 37.2527L435.301 41.5053L436.247 43.0199L449.617 64.3995L466.496 91.4007C468.491 94.6047 469.496 98.231 469.496 101.872C469.496 105.498 468.491 109.139 466.496 112.343L360.414 282.098L342.996 309.973L342.937 310.075L340.316 314.298C336.704 320.066 330.369 323.575 323.553 323.575H253.079C246.263 323.575 239.928 320.051 236.316 314.298L218.126 285.185L202.485 260.136C200.591 257.107 199.586 253.699 199.514 250.247Z" fill="#F2672D" stroke="#F7A880" stroke-width="1.8" stroke-linejoin="round"/>
<path d="M333.427 303.478C332.655 303.478 330.718 303.259 329.48 301.293L314.276 276.957L302.683 258.825L300.528 255.388C299.188 253.247 298.445 250.786 298.387 248.31C298.299 245.47 299.042 242.732 300.528 240.344L357.224 149.612L420.358 48.4961C421.596 46.5154 423.548 46.2969 424.319 46.2969C425.091 46.2969 427.043 46.5154 428.281 48.4961L429.198 49.967L457.277 94.3719C460.132 98.9449 460.132 104.857 457.277 109.43L337.418 301.191L337.359 301.293C336.121 303.259 334.199 303.478 333.413 303.478H333.427Z" fill="#F2672D" stroke="#F7A880" stroke-miterlimit="10" stroke-linejoin="round"/>
</svg>
