<svg width="210" height="42" viewBox="0 0 210 42" fill="none" xmlns="http://www.w3.org/2000/svg">
<path d="M3.13823 38.8266C2.67634 38.1808 2.45799 37.5036 2.48318 36.7949C2.52962 36.0844 2.70633 35.3948 3.01328 34.7263C3.32024 34.0578 3.71585 33.4246 4.20011 32.8266C4.68256 32.2073 5.1501 31.6643 5.60272 31.1975C6.90046 29.845 8.2932 28.6021 9.78094 27.4689C11.2687 26.3357 12.7928 25.2529 14.3534 24.2205C15.914 23.1881 17.4897 22.208 19.0806 21.2801C20.6909 20.3291 22.327 19.4294 23.9889 18.5811C24.7677 18.1721 25.5588 17.7835 26.3624 17.4152C27.166 17.0469 27.983 16.7095 28.8133 16.4032C29.0629 16.3177 29.3533 16.2073 29.6843 16.072C30.0366 15.9349 30.3925 15.8403 30.752 15.7882C31.1098 15.7149 31.4508 15.6965 31.7751 15.733C32.1206 15.7678 32.4105 15.9036 32.6448 16.1406C32.8792 16.3775 33.0312 16.6536 33.1009 16.9688C33.1688 17.2628 33.196 17.5816 33.1825 17.9254C33.1672 18.2478 33.1102 18.5845 33.0117 18.9355C32.9326 19.2634 32.8615 19.5585 32.7982 19.8209C32.5343 20.7426 32.226 21.6468 31.8734 22.5333C31.519 23.3985 31.1646 24.2638 30.8102 25.1291L28.5927 30.0072C29.9975 29.9088 31.3809 29.8122 32.7431 29.7174C34.1248 29.5995 35.5171 29.4807 36.92 29.3611C37.09 29.3466 37.2725 29.3524 37.4674 29.3786C37.6606 29.3835 37.8254 29.4337 37.962 29.5291C38.1181 29.6014 38.2237 29.7102 38.2789 29.8554C38.3554 29.9987 38.3717 30.19 38.3279 30.4293C38.261 30.6491 38.1364 30.8203 37.9542 30.9429C37.7914 31.0424 37.594 31.1128 37.362 31.154C37.1281 31.1739 36.8934 31.1833 36.6578 31.1819C36.4222 31.1806 36.2193 31.1872 36.0493 31.2017L27.7804 31.7786C27.4558 32.4915 27.1418 33.2034 26.8385 33.9144C26.5352 34.6254 26.2434 35.3462 25.9631 36.0766C25.8239 36.4525 25.6944 36.8168 25.5746 37.1696C25.4566 37.5437 25.383 37.9353 25.3537 38.3446C25.3243 38.7539 25.1672 39.0457 24.8823 39.2199C24.6205 39.4135 24.3098 39.5363 23.9503 39.5884C23.612 39.6387 23.2488 39.6483 22.8608 39.6171C22.4727 39.586 22.1485 39.5494 21.8879 39.5074C20.0625 39.1921 18.2439 38.7049 16.432 38.0458C14.6431 37.4062 12.94 36.6416 11.3225 35.7518C11.0529 35.6035 10.7239 35.3854 10.3353 35.0974C9.96802 34.8075 9.65296 34.5025 9.39013 34.1824C9.14674 33.8392 9.02117 33.4966 9.01342 33.1547C9.02692 32.811 9.2903 32.5101 9.80357 32.2523C10.3594 31.9907 10.9658 31.8212 11.6229 31.7438C12.2783 31.6451 12.9123 31.5481 13.5251 31.4531C14.3717 31.338 15.2193 31.2336 16.0677 31.1398C16.9161 31.046 17.7752 30.9513 18.6449 30.8557C19.9609 30.7221 21.2682 30.6106 22.5666 30.5212C23.8845 30.4088 25.213 30.2955 26.5522 30.1812L27.2031 28.7768C27.6335 27.798 28.0648 26.8299 28.497 25.8723C28.9291 24.9148 29.3498 23.9476 29.7589 22.9706C29.951 22.4618 30.1431 21.9529 30.3352 21.4441C30.5468 20.9122 30.7371 20.3821 30.9062 19.8538C30.987 19.5472 31.105 19.1731 31.2601 18.7317C31.4151 18.2902 31.4559 17.8906 31.3826 17.5329C31.1008 17.4927 30.782 17.5199 30.4261 17.6145C30.0914 17.7073 29.748 17.8222 29.3957 17.9593C29.0646 18.0946 28.7451 18.2396 28.4372 18.3944C28.1292 18.5491 27.8513 18.6799 27.6035 18.7866C26.7574 19.1586 25.9228 19.5402 25.0998 19.9316C24.298 20.3211 23.498 20.732 22.6998 21.164C20.9583 22.0834 19.2532 23.0531 17.5846 24.0733C15.9354 25.0704 14.3253 26.1499 12.7543 27.3116C12.0484 27.8214 11.3435 28.3419 10.6394 28.873C9.93531 29.4041 9.24549 29.9768 8.56992 30.5911C7.89254 31.1841 7.24977 31.8064 6.6416 32.4577C6.05468 33.1073 5.53607 33.8046 5.08576 34.5495C4.93384 34.7766 4.79436 35.024 4.66733 35.2918C4.5403 35.5596 4.43452 35.8255 4.34999 36.0897C4.28854 36.3732 4.2696 36.6532 4.29317 36.9295C4.31674 37.2059 4.40318 37.4661 4.55247 37.7103C4.72302 37.9527 4.77576 38.1944 4.71068 38.4355C4.66686 38.6747 4.55473 38.8663 4.37431 39.0102C4.19388 39.154 3.98495 39.2147 3.7475 39.1921C3.51187 39.1908 3.30878 39.0689 3.13823 38.8266ZM25.7717 31.95C24.2819 32.0556 22.7931 32.1719 21.3052 32.2989C19.8367 32.4027 18.3709 32.5385 16.9079 32.7061C16.1232 32.7944 15.3385 32.8828 14.5539 32.9711C13.7905 33.0576 13.0298 33.1761 12.2718 33.3264L10.9171 33.6346C11.1727 33.8697 11.5008 34.0773 11.9016 34.2572C12.3023 34.4371 12.6144 34.5818 12.8378 34.6912C13.4426 35.0036 14.0552 35.2832 14.6758 35.53C15.2964 35.7768 15.9275 36.0227 16.5693 36.2677C17.2324 36.5109 17.8928 36.7222 18.5504 36.9017C19.2098 37.1023 19.8896 37.2906 20.5898 37.4664C20.7422 37.4962 20.9389 37.5436 21.18 37.6087C21.4441 37.6932 21.7171 37.7556 21.9989 37.7958C22.2825 37.8572 22.5536 37.8983 22.8123 37.9191C23.0941 37.9593 23.3394 37.9491 23.5484 37.8884C23.5808 37.2647 23.7301 36.6311 23.9964 35.9875C24.2645 35.3651 24.5246 34.7755 24.7769 34.2187L25.7717 31.95ZM45.643 22.7076C45.663 22.9414 45.6465 23.1248 45.5936 23.2578C45.5407 23.3908 45.4532 23.4946 45.3311 23.5692C45.2072 23.6226 45.0593 23.6459 44.8875 23.6392C44.7156 23.6324 44.5428 23.615 44.3692 23.587C44.4036 23.9909 44.2847 24.3543 44.0125 24.6773C43.8181 24.908 43.5031 25.1061 43.0676 25.2718C42.6534 25.4356 42.1921 25.5498 41.6838 25.6146C41.1754 25.6794 40.6635 25.7017 40.1479 25.6814C39.6305 25.6399 39.1723 25.5398 38.7734 25.3811C38.3745 25.2225 38.0764 24.991 37.8791 24.6866C37.6819 24.3823 37.659 23.9882 37.8104 23.5042C37.9247 23.0876 38.1429 22.7586 38.4649 22.517C38.8063 22.2524 39.185 22.0488 39.6011 21.9062C40.0384 21.7619 40.4793 21.66 40.9239 21.6007C41.3897 21.5395 41.8042 21.5042 42.1674 21.4946C42.3799 21.4765 42.6687 21.4733 43.0337 21.4849C43.4199 21.4948 43.7982 21.5375 44.1687 21.6129C44.5391 21.6884 44.86 21.8109 45.1314 21.9804C45.424 22.1482 45.5946 22.3906 45.643 22.7076ZM37.9893 29.3662C38.2674 29.3639 38.4863 29.4202 38.646 29.535C38.8039 29.6286 38.9122 29.7692 38.971 29.9569C39.0493 30.1215 39.0869 30.311 39.0838 30.5254C39.0806 30.7398 39.0669 30.955 39.0425 31.1712C39.2302 31.1124 39.409 31.0757 39.5791 31.0612C39.7686 31.0236 39.9253 30.9782 40.0492 30.9248C40.5697 30.7519 41.0982 30.5462 41.6345 30.3078C42.316 30.0141 42.9984 29.7311 43.6817 29.4587C44.3845 29.1633 45.1033 28.9306 45.8382 28.7609C46.049 28.7215 46.274 28.7237 46.5132 28.7676C46.7738 28.8096 46.9847 28.8986 47.1462 29.0347C47.329 29.169 47.4294 29.3424 47.4475 29.555C47.4851 29.7445 47.3748 29.9573 47.1166 30.1934C46.9769 30.3124 46.822 30.3791 46.6519 30.3937C46.5032 30.4063 46.3446 30.4306 46.1764 30.4663C45.8612 30.536 45.5469 30.6164 45.2335 30.7073C44.9201 30.7983 44.6182 30.899 44.3279 31.0094C43.7047 31.2339 43.0824 31.4689 42.4611 31.7146C41.8609 31.9585 41.2617 32.213 40.6634 32.4782C40.313 32.6365 39.8996 32.811 39.4234 33.0015C38.9703 33.2114 38.5364 33.2698 38.1216 33.1767C37.8575 33.0922 37.6641 32.9588 37.5415 32.7766C37.3995 32.6174 37.3088 32.4325 37.2694 32.2217C37.2069 31.9915 37.187 31.7577 37.2095 31.5203C37.2321 31.2828 37.2662 31.0551 37.3118 30.8371C37.2159 30.7168 37.1607 30.5717 37.1462 30.4016C37.1317 30.2316 37.1509 30.08 37.2038 29.9471C37.2549 29.7928 37.3512 29.6669 37.4927 29.5691C37.6112 29.452 37.7767 29.3843 37.9893 29.3662ZM43.2349 23.8444C43.3 23.6033 43.2296 23.4059 43.0238 23.2522C42.9795 23.2345 42.9467 23.2266 42.9255 23.2285C42.9042 23.2303 42.882 23.2214 42.859 23.202C42.6215 23.1794 42.3203 23.1623 41.9553 23.1506C41.6098 23.1159 41.2457 23.1148 40.8631 23.1474C40.5018 23.1783 40.1662 23.2604 39.8564 23.3939C39.5448 23.5061 39.3237 23.6749 39.193 23.9001C39.1949 23.9214 39.186 23.9435 39.1666 23.9666C39.2236 24.133 39.3842 24.2585 39.6483 24.343C39.9319 24.4045 40.2349 24.4429 40.5574 24.4582C40.8799 24.4735 41.1899 24.4684 41.4875 24.4431C41.7851 24.4177 41.987 24.4005 42.0933 24.3914C42.3022 24.3307 42.5005 24.271 42.6882 24.2122C42.8953 24.1303 43.0776 24.0077 43.2349 23.8444ZM46.5589 30.1447C46.2821 29.9113 46.1337 29.6778 46.1138 29.444C46.0938 29.2101 46.1528 29.0231 46.2907 28.8829C46.4268 28.7214 46.6003 28.621 46.811 28.5816C47.0199 28.5209 47.2264 28.5568 47.4304 28.6893C47.7267 28.8996 48.122 29.0157 48.6163 29.0378C49.1106 29.0599 49.605 29.0819 50.0993 29.104C50.5918 29.1048 51.0348 29.1526 51.4283 29.2475C51.8413 29.3194 52.1154 29.5208 52.2507 29.8518C53.0172 29.5509 53.7971 29.281 54.5903 29.0421C55.3817 28.7818 56.1005 28.5492 56.7468 28.3442C57.0389 28.2551 57.3833 28.1508 57.7799 28.0313C58.1747 27.8906 58.5811 27.7596 58.9989 27.6383C59.4168 27.517 59.8277 27.4391 60.2315 27.4047C60.6336 27.349 60.9977 27.35 61.3238 27.4078C61.4993 27.4571 61.6349 27.5419 61.7309 27.6622C61.848 27.7806 61.9245 27.924 61.9602 28.0922C62.0154 28.2374 62.0175 28.3871 61.9664 28.5413C61.9366 28.6937 61.8518 28.8294 61.7121 28.9484C61.5141 29.1366 61.2441 29.2346 60.9022 29.2423C60.5815 29.2483 60.2954 29.2834 60.044 29.3476C58.6556 29.6373 57.2735 30.0015 55.8978 30.44C54.5434 30.8767 53.2156 31.3753 51.9146 31.9359C51.7287 32.016 51.4827 32.1441 51.1766 32.3201C50.8935 32.5155 50.597 32.68 50.2873 32.8134C49.9987 32.9451 49.7154 33.0121 49.4373 33.0144C49.1609 33.038 48.9375 32.9286 48.7669 32.6862C48.6425 32.4827 48.5828 32.2844 48.5877 32.0913C48.6139 31.8963 48.6844 31.719 48.7993 31.5594C48.9336 31.3766 49.0918 31.2239 49.2741 31.1013C49.4545 30.9575 49.6483 30.8446 49.8554 30.7627C49.618 30.7401 49.3495 30.7309 49.0501 30.7351C48.7489 30.7179 48.4477 30.7008 48.1465 30.6837C47.8435 30.6453 47.5502 30.5954 47.2666 30.5339C46.9812 30.4512 46.7453 30.3215 46.5589 30.1447ZM72.3575 18.5339C71.3472 19.241 70.4108 20.0596 69.548 20.9896C68.6835 21.8984 67.842 22.8266 67.0236 23.7742C66.5551 24.3067 66.0982 24.8488 65.6528 25.4006C65.2075 25.9525 64.7621 26.5043 64.3167 27.0562C64.087 27.3755 63.8361 27.6967 63.5639 28.0197C63.3111 28.3196 63.0602 28.6407 62.811 28.9831C63.2483 28.8388 63.6732 28.6741 64.0856 28.489C64.5193 28.3021 64.9123 28.1401 65.2646 28.003C65.578 27.9121 65.9109 27.798 66.2631 27.6609C66.6154 27.5238 66.9695 27.408 67.3255 27.3134C67.6796 27.1975 68.0373 27.1242 68.3986 27.0934C68.7794 27.0395 69.1347 27.0627 69.4644 27.163C69.881 27.2774 70.1472 27.5116 70.263 27.8657C70.3467 28.0941 70.3445 28.3191 70.2564 28.5407C70.6087 28.4036 70.9494 28.2568 71.2786 28.1002C71.6291 27.9419 71.9592 27.796 72.269 27.6625C72.8691 27.4186 73.4692 27.1747 74.0693 26.9308C74.6676 26.6657 75.2802 26.4421 75.907 26.2602C76.0734 26.2032 76.2735 26.1647 76.5074 26.1448C76.7606 26.1017 76.9856 26.104 77.1824 26.1514C77.3791 26.1989 77.5272 26.304 77.6268 26.4668C77.7457 26.6065 77.7754 26.8288 77.7158 27.1336C77.6683 27.3304 77.5544 27.5007 77.374 27.6445C77.1917 27.7671 76.9758 27.8712 76.7261 27.9567C76.4765 28.0422 76.226 28.1171 75.9745 28.1814C75.7213 28.2244 75.5221 28.2735 75.3769 28.3287C74.6723 28.603 73.9793 28.8869 73.2978 29.1805C72.6144 29.4529 71.9311 29.7253 71.2478 29.9977C70.8955 30.1348 70.5113 30.2747 70.0953 30.4172C69.681 30.581 69.279 30.6367 68.8891 30.5843C68.7385 30.5758 68.5737 30.5256 68.3945 30.4338C68.0096 30.1883 67.8178 29.9477 67.8191 29.7121C67.8204 29.4765 67.8961 29.2345 68.0462 28.9862L67.6636 29.0188C66.9093 29.2116 66.1577 29.4363 65.4088 29.6929C64.8068 29.9155 64.1961 30.1603 63.5765 30.4273C62.9783 30.6924 62.3524 30.885 61.6989 31.005C61.4668 31.0462 61.2294 31.0236 60.9865 30.9373C60.7455 30.8722 60.56 30.706 60.4301 30.4388C60.3482 30.2316 60.3398 30.0075 60.4049 29.7665C60.4487 29.5272 60.5466 29.2941 60.6985 29.067C60.8274 28.8205 60.9793 28.5934 61.1543 28.3858C61.308 28.18 61.4423 27.9972 61.5571 27.8376C62.536 26.5122 63.562 25.2364 64.635 24.0101C65.7061 22.7626 66.8119 21.5442 67.9523 20.3549C68.4438 19.842 68.9469 19.3387 69.4614 18.8452C69.976 18.3517 70.504 17.8891 71.0452 17.4576C71.2645 17.2676 71.5106 17.1395 71.7833 17.0735C72.0754 16.9843 72.3298 17.0804 72.5465 17.3616C72.6691 17.5439 72.7085 17.7546 72.6647 17.9939C72.6403 18.2101 72.5379 18.3901 72.3575 18.5339ZM77.3593 26.0079C77.5719 25.9897 77.7668 26.0159 77.9441 26.0864C78.187 26.1728 78.3564 26.2761 78.4523 26.3964C78.5482 26.5166 78.6034 26.6618 78.6179 26.8319C78.6306 26.9807 78.6229 27.1419 78.5949 27.3156C78.5669 27.4892 78.5495 27.662 78.5428 27.8339C78.7997 27.8334 79.0636 27.7894 79.3344 27.7021C79.6266 27.613 79.9063 27.5035 80.1736 27.3736C80.4621 27.2419 80.7293 27.1121 80.9754 26.984C81.2408 26.8329 81.4762 26.7058 81.6815 26.6026C82.216 26.3429 82.7496 26.0726 83.2824 25.7916C83.8133 25.4894 84.3709 25.2492 84.9551 25.0709C85.274 25.0437 85.5008 25.0671 85.6356 25.1413C85.7916 25.2136 85.8973 25.3224 85.9525 25.4675C86.0059 25.5914 86.0301 25.75 86.0252 25.9431C86.0202 26.1362 86.0153 26.3293 86.0103 26.5224C86.8813 26.1912 87.7256 25.798 88.5433 25.3429C89.3821 24.8859 90.254 24.5653 91.159 24.3811C92.0445 24.2199 92.9709 24.1623 93.9383 24.2082C94.927 24.2524 95.8704 24.2682 96.7686 24.2558C96.9387 24.2413 97.1512 24.2232 97.4063 24.2014C97.6808 24.1566 97.9562 24.1224 98.2326 24.0989C98.5089 24.0753 98.7764 24.0739 99.0351 24.0946C99.2938 24.1154 99.5136 24.1823 99.6946 24.2953C99.8986 24.4278 100.022 24.6206 100.065 24.8739C100.128 25.1041 100.093 25.3212 99.9601 25.5252C99.81 25.7735 99.5967 25.9095 99.3204 25.933C99.0653 25.9548 98.82 25.965 98.5844 25.9637C97.3904 26.0227 96.2061 26.0702 95.0316 26.1062C93.8553 26.1209 92.678 26.125 91.4999 26.1184C91.0856 26.2822 90.682 26.4451 90.289 26.6071C89.9155 26.746 89.5544 26.9053 89.2057 27.0849C88.6888 27.3003 88.1437 27.5609 87.5702 27.8667C86.9968 28.1726 86.4356 28.3703 85.8866 28.46C85.8015 28.4672 85.7174 28.4851 85.6342 28.5136C85.5704 28.519 85.4845 28.5157 85.3764 28.5035C84.9422 28.4335 84.6611 28.2755 84.5331 28.0294C84.4032 27.7622 84.3353 27.4682 84.3294 27.1476C83.4195 27.5249 82.5354 27.9536 81.6771 28.4336C80.84 28.9119 79.9496 29.2662 79.0058 29.4965C78.8181 29.5554 78.6171 29.5832 78.4027 29.5801C78.2114 29.5964 78.0174 29.5809 77.8206 29.5334C77.3154 29.3838 77.0368 29.1292 76.9847 28.7697C76.9113 28.412 76.8893 28.0284 76.9187 27.6191C76.7802 27.5025 76.6825 27.3609 76.6255 27.1945C76.5685 27.0281 76.5655 26.8678 76.6166 26.7135C76.6446 26.5399 76.7169 26.3838 76.8336 26.2454C76.9502 26.107 77.1255 26.0278 77.3593 26.0079ZM104.157 23.6899C104.267 23.7233 104.367 23.7683 104.457 23.8248C104.546 23.8601 104.625 23.9069 104.694 23.9652C105.116 23.8864 105.546 23.9139 105.986 24.0477C106.431 24.2452 106.676 24.4813 106.721 24.7558C106.764 25.0091 106.713 25.2917 106.568 25.6038C107.03 25.5002 107.489 25.354 107.944 25.1653C108.42 24.9748 108.884 24.764 109.335 24.5328C109.786 24.3016 110.227 24.0713 110.657 23.8419C111.109 23.6107 111.541 23.4132 111.956 23.2494C112.184 23.1657 112.423 23.0811 112.673 22.9956C112.943 22.9082 113.203 22.9396 113.451 23.0897C113.655 23.2222 113.786 23.3716 113.843 23.538C113.9 23.7045 113.904 23.8754 113.855 24.0509C113.803 24.2051 113.709 24.3524 113.571 24.4926C113.433 24.6328 113.269 24.7217 113.08 24.7593C112.409 24.9236 111.756 25.1827 111.123 25.5365C110.488 25.869 109.86 26.1687 109.241 26.4357C108.952 26.5674 108.643 26.7115 108.314 26.868C107.985 27.0246 107.643 27.1608 107.289 27.2766C106.935 27.3925 106.577 27.4658 106.216 27.4966C105.856 27.5487 105.512 27.5352 105.185 27.4561C104.809 27.3169 104.557 27.1243 104.429 26.8783C104.32 26.6092 104.306 26.3213 104.387 26.0147C103.967 26.1147 103.551 26.2466 103.136 26.4104C102.598 26.6276 102.062 26.8661 101.527 27.1258C101.014 27.3837 100.486 27.5893 99.942 27.7427C99.5861 27.8373 99.2141 27.8691 98.826 27.8379C98.438 27.8068 98.1329 27.6187 97.9108 27.2737C97.6389 26.8473 97.5929 26.4337 97.7728 26.0329C97.9297 25.6127 98.2089 25.2464 98.6104 24.9338C98.9889 24.6017 99.4153 24.3298 99.8897 24.1181C100.362 23.8851 100.756 23.7337 101.071 23.664C101.597 23.5549 102.118 23.5105 102.634 23.5307C103.147 23.5297 103.655 23.5828 104.157 23.6899ZM100.109 25.93C100.317 25.8694 100.525 25.7981 100.733 25.7162C100.94 25.6343 101.146 25.5418 101.351 25.4386C100.847 25.5459 100.432 25.7097 100.109 25.93ZM113.634 22.9135C114.061 22.8985 114.348 23.0025 114.496 23.2254C114.643 23.4484 114.709 23.7211 114.694 24.0435C115.207 23.5288 115.618 22.9584 115.929 22.3324C116.003 22.1976 116.066 22.0531 116.117 21.8988C116.189 21.7428 116.262 21.5974 116.337 21.4626C116.432 21.326 116.541 21.2204 116.663 21.1457C116.783 21.0498 116.94 21.0043 117.133 21.0093C117.455 21.0246 117.669 21.1455 117.774 21.3721C117.879 21.5987 117.942 21.8395 117.964 22.0945C118.089 22.298 118.378 22.4233 118.831 22.4702C119.283 22.4959 119.776 22.4967 120.309 22.4726C120.861 22.4255 121.381 22.3704 121.868 22.3075C122.354 22.2233 122.692 22.173 122.883 22.1567C123.075 22.1404 123.286 22.1116 123.518 22.0704C123.77 22.0061 124.022 21.9525 124.275 21.9095C124.528 21.8665 124.774 21.8562 125.011 21.8788C125.247 21.8801 125.455 21.9373 125.636 22.0503C125.817 22.1633 125.937 22.3137 125.996 22.5014C126.074 22.666 126.089 22.836 126.039 23.0115C125.99 23.187 125.896 23.3449 125.759 23.4851C125.64 23.6023 125.475 23.6699 125.262 23.688C124.929 23.8021 124.56 23.8657 124.154 23.8789C123.768 23.869 123.406 23.8892 123.067 23.9395C122.493 23.9884 121.92 24.0374 121.346 24.0863C120.772 24.1353 120.196 24.163 119.618 24.1694C119.211 24.1614 118.78 24.1232 118.324 24.055C117.869 23.9868 117.461 23.8503 117.101 23.6455C116.891 23.9418 116.67 24.239 116.438 24.5371C116.205 24.8139 115.971 25.0801 115.736 25.3357C115.5 25.5913 115.255 25.8477 114.998 26.1051C114.744 26.3838 114.439 26.581 114.085 26.6969C113.65 26.8625 113.259 26.7995 112.913 26.5078C112.75 26.3505 112.65 26.1877 112.614 26.0194C112.577 25.83 112.582 25.6368 112.629 25.4401C112.655 25.2452 112.703 25.0484 112.772 24.8499C112.819 24.6531 112.867 24.467 112.917 24.2915C112.787 24.0242 112.784 23.7355 112.907 23.4252C113.03 23.1149 113.273 22.9444 113.634 22.9135ZM125.886 21.8684C126.29 21.834 126.611 21.9565 126.849 22.2359C127.086 22.5154 127.152 22.7775 127.044 23.0222C126.958 23.265 126.829 23.5116 126.658 23.7617C127.04 23.7291 127.429 23.6424 127.824 23.5016C128.218 23.3609 128.601 23.1998 128.971 23.0184C129.36 22.8139 129.728 22.6112 130.075 22.4103C130.443 22.2076 130.793 22.0387 131.124 21.9034C131.372 21.7966 131.633 21.7208 131.907 21.676C132.203 21.6293 132.471 21.6385 132.713 21.7036C132.975 21.7669 133.188 21.8772 133.351 22.0345C133.536 22.1901 133.662 22.4148 133.73 22.7088C135.273 21.9776 136.841 21.405 138.433 20.9909C138.58 20.9569 138.758 20.9096 138.967 20.849C139.197 20.7865 139.428 20.7347 139.66 20.6935C139.89 20.631 140.112 20.6014 140.327 20.6045C140.541 20.6076 140.726 20.6453 140.882 20.7177C141.084 20.8289 141.215 20.9783 141.274 21.166C141.354 21.3519 141.37 21.5432 141.323 21.7399C141.295 21.9136 141.201 22.0715 141.042 22.2135C140.902 22.3325 140.726 22.401 140.514 22.4192C139.362 22.4746 138.222 22.6681 137.095 22.9999C135.988 23.3298 134.909 23.7323 133.857 24.2074C133.784 24.599 133.614 24.9882 133.347 25.375C133.103 25.7812 132.825 26.1582 132.512 26.506C132.201 26.8751 131.876 27.2133 131.539 27.5204C131.222 27.8258 130.945 28.0956 130.708 28.3299C130.47 28.543 130.142 28.8386 129.724 29.2168C129.307 29.595 128.866 29.9431 128.4 30.2611C127.935 30.5791 127.452 30.813 126.951 30.9628C126.473 31.1321 126.042 31.1046 125.659 30.8803C125.141 30.5819 124.916 30.205 124.984 29.7496C125.031 29.2959 125.258 28.8163 125.665 28.3105C126.073 27.8261 126.597 27.321 127.237 26.7954C127.88 26.291 128.514 25.8194 129.14 25.3805C129.788 24.9399 130.366 24.5694 130.876 24.269C131.407 23.9668 131.754 23.7659 131.916 23.6664L132.131 23.5517C132.08 23.449 131.817 23.5036 131.343 23.7153C130.889 23.9253 130.343 24.1753 129.704 24.4653C129.085 24.7322 128.432 24.9807 127.745 25.2105C127.079 25.4386 126.498 25.531 126.002 25.4877C125.55 25.462 125.221 25.3723 125.015 25.2185C124.808 25.0435 124.694 24.8391 124.674 24.6053C124.631 24.3521 124.662 24.0818 124.765 23.7946C124.848 23.5092 124.964 23.2317 125.112 22.9622C125.05 22.732 125.084 22.5042 125.214 22.279C125.345 22.0537 125.569 21.9169 125.886 21.8684ZM129.773 26.7718C129.87 26.6565 130.048 26.4807 130.306 26.2446C130.566 26.0297 130.784 25.8291 130.961 25.6427C130.779 25.7653 130.546 25.9243 130.263 26.1198C130.001 26.3134 129.79 26.4706 129.629 26.5914C129.507 26.666 129.304 26.8011 129.021 26.9965C128.759 27.1901 128.467 27.4077 128.145 27.6493C127.846 27.9103 127.559 28.1811 127.283 28.4615C127.007 28.742 126.815 28.9939 126.705 29.2174C127.286 28.9965 127.833 28.6287 128.346 28.114C128.881 27.6186 129.357 27.1713 129.773 26.7718ZM145.427 20.1694C145.537 20.2029 145.637 20.2478 145.727 20.3044C145.816 20.3396 145.895 20.3864 145.964 20.4447C146.386 20.366 146.816 20.3935 147.256 20.5273C147.701 20.7248 147.946 20.9608 147.991 21.2354C148.034 21.4886 147.983 21.7713 147.838 22.0834C148.3 21.9797 148.759 21.8336 149.214 21.6449C149.69 21.4544 150.154 21.2435 150.605 21.0123C151.057 20.7811 151.497 20.5509 151.927 20.3215C152.379 20.0903 152.811 19.8928 153.226 19.729C153.454 19.6453 153.693 19.5606 153.943 19.4751C154.214 19.3878 154.473 19.4192 154.722 19.5693C154.926 19.7017 155.056 19.8512 155.113 20.0176C155.17 20.184 155.174 20.355 155.125 20.5305C155.074 20.6847 154.979 20.8319 154.841 20.9722C154.703 21.1124 154.54 21.2013 154.35 21.2389C153.679 21.4032 153.027 21.6622 152.393 22.016C151.758 22.3486 151.13 22.6483 150.511 22.9153C150.222 23.0469 149.913 23.191 149.584 23.3476C149.255 23.5041 148.913 23.6403 148.559 23.7562C148.205 23.872 147.847 23.9454 147.486 23.9762C147.126 24.0283 146.783 24.0148 146.455 23.9357C146.079 23.7965 145.827 23.6038 145.699 23.3578C145.59 23.0888 145.576 22.8009 145.657 22.4942C145.238 22.5943 144.821 22.7262 144.406 22.89C143.868 23.1072 143.332 23.3456 142.797 23.6053C142.284 23.8632 141.756 24.0689 141.212 24.2223C140.856 24.3169 140.484 24.3486 140.096 24.3175C139.708 24.2864 139.403 24.0983 139.181 23.7533C138.909 23.3268 138.863 22.9132 139.043 22.5125C139.2 22.0923 139.479 21.7259 139.881 21.4133C140.259 21.0813 140.685 20.8094 141.16 20.5976C141.632 20.3646 142.026 20.2133 142.342 20.1436C142.867 20.0345 143.388 19.99 143.904 20.0103C144.418 20.0093 144.925 20.0623 145.427 20.1694ZM141.379 22.4096C141.588 22.349 141.796 22.2777 142.003 22.1958C142.21 22.1139 142.416 22.0214 142.621 21.9182C142.117 22.0255 141.702 22.1893 141.379 22.4096ZM208.503 22.85C207.519 23.3622 206.435 23.7009 205.25 23.8662C204.086 24.0297 202.953 24.1692 201.849 24.2848C199.834 24.4995 197.812 24.6399 195.783 24.7059C193.776 24.77 191.756 24.8032 189.722 24.8054C187.667 24.8094 185.619 24.7807 183.58 24.7191C181.564 24.677 179.535 24.6145 177.494 24.5317C177.257 24.5091 177.019 24.4866 176.782 24.464C176.566 24.4396 176.394 24.315 176.268 24.0903C176.096 23.8267 176.062 23.5512 176.166 23.264C176.293 22.9963 176.503 22.8284 176.797 22.7605C178.805 22.2038 180.712 21.4631 182.517 20.5383C183.563 19.9995 184.572 19.3996 185.543 18.7386C186.536 18.0759 187.457 17.3335 188.308 16.5116C188.881 15.9489 189.457 15.3002 190.037 14.5656C190.637 13.8292 191.149 13.0469 191.571 12.2187C191.992 11.3905 192.273 10.5423 192.413 9.67389C192.552 8.78426 192.456 7.91457 192.127 7.06482C191.829 6.34081 191.397 5.7889 190.829 5.40911C190.283 5.0275 189.65 4.76033 188.93 4.60761C188.211 4.45488 187.447 4.41297 186.639 4.48187C185.83 4.52952 185.025 4.6303 184.224 4.78423C183.445 4.93634 182.701 5.12825 181.993 5.35994C181.283 5.57039 180.668 5.76204 180.147 5.93491C180.083 5.94035 180.031 5.95551 179.99 5.98039L180.022 5.97767C178.259 6.64194 176.586 7.48054 175.002 8.49347C173.438 9.48333 172.054 10.704 170.85 12.1556C170.035 13.1458 169.334 14.2119 168.746 15.354C168.178 16.473 167.799 17.6723 167.608 18.9517C167.582 19.1467 167.575 19.4364 167.586 19.8208C167.619 20.2034 167.618 20.5781 167.585 20.9449C167.553 21.3117 167.461 21.6192 167.311 21.8676C167.161 22.1159 166.89 22.2032 166.498 22.1296C166.128 22.0541 165.883 21.8181 165.763 21.4215C165.644 21.0249 165.596 20.59 165.62 20.1169C165.642 19.6226 165.697 19.1362 165.785 18.6577C165.893 18.1773 165.98 17.8167 166.046 17.5756C166.457 15.8705 167.126 14.3039 168.053 12.8759C169.002 11.4461 170.113 10.1631 171.386 9.02672C172.66 7.89038 174.053 6.90439 175.566 6.06876C177.099 5.21007 178.655 4.50988 180.236 3.96821C181.007 3.70982 181.875 3.47515 182.842 3.26421C183.83 3.05145 184.825 2.91309 185.825 2.84912C186.826 2.78516 187.814 2.81866 188.789 2.94963C189.763 3.0806 190.633 3.3597 191.397 3.78694C192.181 4.19112 192.819 4.76831 193.311 5.51852C193.823 6.24567 194.117 7.18406 194.194 8.33371C194.258 9.33456 194.138 10.3083 193.833 11.255C193.548 12.1785 193.142 13.0696 192.616 13.9281C192.089 14.7866 191.484 15.5983 190.8 16.3632C190.114 17.1069 189.411 17.777 188.691 18.3737C187.595 19.3237 186.435 20.1613 185.212 20.8865C183.991 21.633 182.721 22.2981 181.4 22.8817C184.106 22.9721 186.785 23.0112 189.439 22.9989C192.116 23.0061 194.798 22.9486 197.486 22.8264C199.062 22.7347 200.67 22.6297 202.308 22.5113C203.947 22.393 205.514 22.0666 207.01 21.5322C207.113 21.4806 207.226 21.4281 207.35 21.3747C207.474 21.3213 207.588 21.2795 207.692 21.2492C207.944 21.1849 208.181 21.2074 208.405 21.3169C208.628 21.4263 208.79 21.5624 208.889 21.7252C208.991 21.9092 209.018 22.0996 208.97 22.2964C208.924 22.5144 208.769 22.6989 208.503 22.85ZM172.883 26.9484C172.437 26.9864 172.158 26.8603 172.048 26.57C171.939 26.3009 171.93 25.9377 172.019 25.4805C172.132 25.0427 172.314 24.5454 172.566 23.9886C172.82 23.453 173.076 22.9388 173.334 22.4457C173.613 21.9509 173.865 21.5226 174.091 21.1607C174.339 20.797 174.5 20.5584 174.576 20.4449C176.43 17.8246 178.525 15.4084 180.863 13.1963C181.061 13.0082 181.289 12.796 181.547 12.5599C181.804 12.3025 182.085 12.2142 182.392 12.2951C182.567 12.3444 182.714 12.4283 182.831 12.5467C182.948 12.6652 183.024 12.8086 183.06 12.9768C183.094 13.1238 183.087 13.285 183.037 13.4605C183.007 13.6129 182.923 13.7486 182.783 13.8676C181.985 14.5565 181.213 15.2968 180.467 16.0884C179.742 16.8782 179.04 17.6768 178.359 18.4843C177.698 19.2686 177.059 20.0618 176.443 20.8638C175.849 21.6852 175.301 22.5349 174.797 23.4129C174.61 23.7286 174.434 24.0434 174.268 24.3573C174.123 24.6694 173.99 24.9912 173.868 25.3227C173.817 25.477 173.778 25.6409 173.75 25.8146C173.743 25.9865 173.703 26.1504 173.631 26.3065C173.582 26.4819 173.498 26.6283 173.379 26.7454C173.261 26.8626 173.095 26.9302 172.883 26.9484ZM201.585 19.2651C201.287 19.2905 201.023 19.206 200.792 19.0115C200.583 18.8153 200.447 18.6021 200.384 18.3719C200.32 18.1204 200.333 17.8945 200.423 17.6941C200.532 17.4707 200.768 17.3436 201.129 17.3127C201.427 17.2874 201.68 17.3728 201.89 17.569C202.119 17.7422 202.265 17.9545 202.329 18.206C202.394 18.4574 202.37 18.6842 202.259 18.8864C202.15 19.1099 201.925 19.2361 201.585 19.2651Z" fill="#010101"/>
</svg>
