<svg width="29" height="29" viewBox="0 0 29 29" fill="none" xmlns="http://www.w3.org/2000/svg">
<g clip-path="url(#clip0_1446_5574)">
<path fill-rule="evenodd" clip-rule="evenodd" d="M27.7863 12.8374C20.6591 21.341 9.57376 23.103 1.14137 15.7391C0.860668 15.4939 0.434383 15.5226 0.190004 15.7994C-0.0555356 16.0818 -0.0269711 16.5086 0.253736 16.7538C9.29102 24.6522 21.1812 22.8171 28.8201 13.7062C29.0589 13.4224 29.022 12.9938 28.7367 12.7535C28.4503 12.5189 28.0251 12.5537 27.7863 12.8374Z" fill="white"/>
<path d="M10.0262 13.2988C11.0892 13.5188 12.1294 12.8355 12.3495 11.7725C12.5695 10.7095 11.8862 9.66937 10.8232 9.44928C9.76017 9.22919 8.72003 9.91251 8.49994 10.9755C8.27985 12.0385 8.96317 13.0787 10.0262 13.2988Z" fill="white"/>
<path d="M18.4182 12.9013C19.4604 13.1171 20.4803 12.4471 20.6961 11.4049C20.9119 10.3626 20.2419 9.34282 19.1996 9.12704C18.1574 8.91125 17.1376 9.58121 16.9218 10.6235C16.706 11.6657 17.376 12.6855 18.4182 12.9013Z" fill="white"/>
</g>
<defs>
<clipPath id="clip0_1446_5574">
<rect width="28" height="28" fill="white" transform="translate(0.5 0.5)"/>
</clipPath>
</defs>
</svg>
